<svg xmlns="http://www.w3.org/2000/svg" viewBox="0 0 512 512" width="512" height="512">
  <defs>
    <linearGradient id="grad" x1="0%" y1="0%" x2="100%" y2="100%">
      <stop offset="0%" style="stop-color:#059669;stop-opacity:1" />
      <stop offset="100%" style="stop-color:#064e3b;stop-opacity:1" />
    </linearGradient>
    <linearGradient id="gold" x1="0%" y1="0%" x2="100%" y2="100%">
      <stop offset="0%" style="stop-color:#fef08a;stop-opacity:1" />
      <stop offset="100%" style="stop-color:#eab308;stop-opacity:1" />
    </linearGradient>
  </defs>
  <rect width="512" height="512" rx="128" fill="url(#grad)"/>
  <!-- Home Outline -->
  <path d="M256 96 L112 216 V400 C112 413.25 122.75 424 136 424 H376 C389.25 424 400 413.25 400 400 V216 Z" fill="none" stroke="#ffffff" stroke-width="28" stroke-linecap="round" stroke-linejoin="round"/>
  <!-- Roof Top Dot -->
  <circle cx="256" cy="96" r="14" fill="#ffffff"/>
  <!-- Coin in the middle -->
  <circle cx="256" cy="304" r="64" fill="url(#gold)" stroke="#ca8a04" stroke-width="8"/>
  <text x="256" y="328" font-size="60" font-weight="bold" fill="#78350f" text-anchor="middle" font-family="system-ui, sans-serif">﷼</text>
  <!-- Sparkles -->
  <path d="M370 140 L380 160 L400 170 L380 180 L370 200 L360 180 L340 170 L360 160 Z" fill="#fde047"/>
  <path d="M140 160 L146 172 L158 178 L146 184 L140 196 L134 184 L122 178 L134 172 Z" fill="#fde047"/>
</svg>
